<svg xmlns="http://www.w3.org/2000/svg" xmlns:xlink="http://www.w3.org/1999/xlink"><symbol id="icon-close" viewBox="0 0 20 20"><g fill="none"><path d="M.293 18.291a1 1 0 101.414 1.414L10 11.413l8.292 8.292a1 1 0 101.414-1.414l-8.292-8.292 8.292-8.292A1 1 0 1018.291.293L9.999 8.585 1.707.293A1 1 0 10.293 1.707L8.585 10 .293 18.291z"/></g></symbol><symbol id="odnoklassniki" viewBox="0 0 22 22"><g fill="none">
<g id="icon/odnoklassniki">
<path id="icon/odnoklassniki_2" d="M11 3.32798C12.3229 3.32798 13.3988 4.38262 13.3988 5.67944C13.3988 6.97235 12.3229 8.02699 11 8.02699C9.67708 8.02699 8.60121 6.97235 8.60121 5.67944C8.60121 4.38262 9.67708 3.32798 11 3.32798ZM11 11.355C14.1957 11.355 16.7938 8.8082 16.7938 5.67944C16.7938 2.54676 14.1957 0 11 0C7.80427 0 5.21023 2.54676 5.21023 5.67944C5.21023 8.8082 7.80427 11.355 11 11.355ZM13.343 15.9876C14.5225 15.722 15.6581 15.2649 16.7061 14.6204C17.499 14.1322 17.7381 13.1049 17.24 12.3276C16.738 11.5464 15.694 11.312 14.897 11.8042C12.5261 13.265 9.47386 13.265 7.09898 11.8042C6.30603 11.312 5.25805 11.5464 4.75996 12.3276C4.26188 13.1049 4.50096 14.1322 5.29391 14.6204C6.34189 15.2649 7.47753 15.722 8.657 15.9876L5.41744 19.1593C4.75598 19.8077 4.75598 20.8624 5.41744 21.5108C5.75215 21.835 6.1825 21.999 6.61683 21.999C7.05116 21.999 7.4855 21.835 7.82021 21.5108L11 18.3937L14.1838 21.5108C14.8452 22.1631 15.9171 22.1631 16.5826 21.5108C17.244 20.8624 17.244 19.8077 16.5826 19.1593L13.343 15.9876Z" fill="#316DC2"/>
</g>
</g></symbol><symbol id="reddit" viewBox="0 0 22 22"><g fill="none">
<g id="icon/Reddit">
<path id="icon/Reddit_2" d="M12.9453 0.5C12.304 0.5 11.7021 0.84161 11.3161 1.33425C10.9301 1.82688 10.7173 2.4274 10.5623 3.06027C10.3161 4.07791 10.2401 5.20702 10.2219 6.22466C8.41944 6.35051 6.78722 6.91147 5.43159 7.77808C4.88143 7.29264 4.21882 7.02295 3.58356 7.03014C2.86015 7.03733 2.17322 7.36455 1.66258 8.03699C0.686888 9.32072 0.799351 11.4207 1.93005 12.6685C1.86015 13.0533 1.80847 13.4488 1.80847 13.8479C1.80847 18.0767 5.92399 21.5 11 21.5C16.076 21.5 20.1915 18.0731 20.1915 13.8479C20.1915 13.4488 20.1399 13.0533 20.0699 12.6685C21.2006 11.4207 21.3131 9.32072 20.3374 8.03699C19.8268 7.36455 19.1399 7.03733 18.4164 7.03014C17.7812 7.02295 17.1186 7.29264 16.5684 7.77808C15.2189 6.91507 13.5958 6.35411 11.8024 6.22466C11.8268 5.28613 11.8906 4.31164 12.0699 3.57808C12.1824 3.11781 12.3161 2.78339 12.459 2.6C12.6018 2.41661 12.7052 2.3411 12.9453 2.3411C13.4651 2.3411 13.5319 2.51729 13.845 2.94521C14.0031 3.16096 14.1854 3.43065 14.4772 3.69315C14.769 3.95565 15.2006 4.18219 15.6687 4.18219V2.3411C15.538 2.3411 15.5137 2.3375 15.4256 2.25479C15.3374 2.17209 15.2158 1.98151 15.0365 1.73699C14.6778 1.24435 13.9818 0.5 12.9453 0.5ZM18.0031 0.672603C16.7933 0.672603 15.8146 1.83048 15.8146 3.26164C15.8146 4.69281 16.7933 5.85069 18.0031 5.85069C19.2128 5.85069 20.1915 4.69281 20.1915 3.26164C20.1915 1.83048 19.2128 0.672603 18.0031 0.672603ZM18.0031 1.59315C18.7812 1.59315 19.4134 2.3411 19.4134 3.26164C19.4134 4.18219 18.7812 4.93014 18.0031 4.93014C17.225 4.93014 16.5927 4.18219 16.5927 3.26164C16.5927 2.3411 17.225 1.59315 18.0031 1.59315ZM11 7.66301C15.307 7.66301 18.9514 10.5002 18.9514 13.8479C18.9514 17.1993 15.307 20.0329 11 20.0329C6.69299 20.0329 3.0486 17.1993 3.0486 13.8479C3.0486 10.5002 6.69299 7.66301 11 7.66301ZM3.60787 8.49726C3.82368 8.50086 4.0486 8.55839 4.26441 8.66986C3.48325 9.37106 2.86319 10.1765 2.44069 11.0863C2.1489 10.3743 2.22793 9.48613 2.58659 9.01507C2.84799 8.66986 3.20969 8.49366 3.60787 8.49726ZM18.3921 8.49726C18.7903 8.49366 19.152 8.66986 19.4134 9.01507C19.7721 9.48613 19.8511 10.3743 19.5593 11.0863C19.1368 10.1765 18.5167 9.37106 17.7356 8.66986C17.9514 8.55839 18.1763 8.50086 18.3921 8.49726ZM7.88753 10.7986C7.10941 10.7986 6.47719 11.5466 6.47719 12.4671C6.47719 13.3877 7.10941 14.1356 7.88753 14.1356C8.66564 14.1356 9.29786 13.3877 9.29786 12.4671C9.29786 11.5466 8.66564 10.7986 7.88753 10.7986ZM14.1125 10.7986C13.3344 10.7986 12.7021 11.5466 12.7021 12.4671C12.7021 13.3877 13.3344 14.1356 14.1125 14.1356C14.8906 14.1356 15.5228 13.3877 15.5228 12.4671C15.5228 11.5466 14.8906 10.7986 14.1125 10.7986ZM7.13372 16.4658C7.62917 17.6776 9.16109 18.8534 11 18.8534C12.8389 18.8534 14.3952 17.6776 14.8906 16.4658C13.9909 17.1526 12.5714 17.6164 11 17.6164C9.42857 17.6164 8.03342 17.1526 7.13372 16.4658Z" fill="#316DC2"/>
</g>
</g></symbol><symbol id="vk" viewBox="0 0 22 12"><g fill="none">
<path d="M21.8039 10.7032C21.7448 10.6086 21.379 9.84878 19.6189 8.28709C17.7762 6.65178 18.0238 6.91732 20.2432 4.0897C21.5949 2.36763 22.1353 1.31598 21.9662 0.866405C21.8053 0.437859 20.8111 0.550911 20.8111 0.550911L17.5053 0.569315C17.5053 0.569315 17.2606 0.537766 17.0777 0.641616C16.9003 0.744151 16.7862 0.980772 16.7862 0.980772C16.7862 0.980772 16.2623 2.31373 15.5637 3.44688C14.091 5.83806 13.501 5.96426 13.2604 5.81572C12.7007 5.46999 12.841 4.42491 12.841 3.6835C12.841 1.36594 13.2082 0.399737 12.1246 0.149971C11.7643 0.0671538 11.5003 0.0119424 10.5803 0.00274048C9.4005 -0.00909055 8.4008 0.00668415 7.83563 0.27091C7.45885 0.447061 7.16871 0.840114 7.3461 0.862462C7.56474 0.890068 8.05977 0.989974 8.32242 1.33176C8.66207 1.77214 8.64969 2.76331 8.64969 2.76331C8.64969 2.76331 8.84496 5.49102 8.19453 5.83018C7.74763 6.06285 7.13571 5.5883 5.82248 3.41796C5.15006 2.30716 4.64127 1.07805 4.64127 1.07805C4.64127 1.07805 4.54364 0.849316 4.369 0.727062C4.15724 0.578517 3.86022 0.531193 3.86022 0.531193L0.716735 0.549597C0.716735 0.549597 0.245075 0.562743 0.0718122 0.758612C-0.0821991 0.933448 0.0594363 1.29364 0.0594363 1.29364C0.0594363 1.29364 2.52087 6.79769 5.30682 9.57272C7.86313 12.1164 10.7646 11.9494 10.7646 11.9494H12.0792C12.0792 11.9494 12.4766 11.9074 12.6787 11.6984C12.8658 11.5064 12.8589 11.1463 12.8589 11.1463C12.8589 11.1463 12.8327 9.45967 13.6523 9.21122C14.4595 8.96671 15.4963 10.8413 16.595 11.563C17.4256 12.1085 18.0568 11.9889 18.0568 11.9889L20.9953 11.9494C20.9953 11.9494 22.5327 11.8587 21.8039 10.7032Z" fill="#316DC2"/>
</g></symbol></svg>